<svg xmlns="http://www.w3.org/2000/svg" xmlns:xlink="http://www.w3.org/1999/xlink" viewBox="673 953 1294 961" preserveAspectRatio="xMidYMid meet">

<path fill-rule="nonzero" fill="rgb(0%, 0%, 0%)" fill-opacity="1" d="M 1063.929688 1431.878906 C 1062.011719 1428.921875 1062.851562 1424.949219 1065.808594 1423.019531 C 1068.78125 1421.101562 1072.75 1421.941406 1074.671875 1424.898438 C 1092.109375 1451.769531 1098.21875 1483.011719 1093.878906 1512.699219 C 1089.53125 1542.410156 1074.71875 1570.589844 1050.308594 1591.328125 C 1047.609375 1593.621094 1043.570312 1593.28125 1041.28125 1590.578125 C 1038.988281 1587.878906 1039.328125 1583.828125 1042.03125 1581.550781 C 1063.960938 1562.910156 1077.269531 1537.570312 1081.179688 1510.851562 C 1085.089844 1484.121094 1079.601562 1456.019531 1063.929688 1431.878906 Z M 1126.308594 1638.25 C 1126.878906 1639.640625 1127.199219 1641.144531 1127.25 1642.683594 C 1131.628906 1662.453125 1138.078125 1681.046875 1146.609375 1698.460938 C 1167.808594 1741.75 1202.03125 1778.15625 1249.28125 1807.671875 C 1249.449219 1807.78125 1249.621094 1807.890625 1249.789062 1808.007812 C 1250.390625 1808.335938 1251.050781 1808.511719 1251.699219 1808.53125 L 1251.738281 1808.53125 C 1252.488281 1808.539062 1253.25 1808.355469 1253.921875 1807.972656 C 1254.621094 1807.578125 1255.171875 1807.007812 1255.539062 1806.34375 C 1255.710938 1806.039062 1255.839844 1805.710938 1255.929688 1805.367188 C 1244.648438 1771.496094 1239.21875 1737.933594 1239.621094 1704.683594 C 1239.699219 1698.5 1239.980469 1692.335938 1240.460938 1686.183594 C 1240.300781 1684.628906 1240.429688 1683.019531 1240.878906 1681.425781 C 1243.371094 1655.34375 1249.511719 1629.53125 1259.320312 1604 C 1261.839844 1597.398438 1269.230469 1594.101562 1275.828125 1596.621094 C 1282.429688 1599.140625 1285.730469 1606.53125 1283.210938 1613.128906 C 1275.269531 1633.808594 1269.949219 1654.675781 1267.269531 1675.710938 L 1349.558594 1700.496094 C 1361.179688 1703.996094 1370.410156 1692.046875 1380.378906 1679.132812 C 1384.871094 1673.316406 1389.480469 1667.351562 1394.71875 1661.867188 L 1474.308594 1578.5 C 1469.648438 1576.5 1464.988281 1574.371094 1460.328125 1572.101562 C 1453.960938 1568.988281 1451.308594 1561.308594 1454.410156 1554.929688 C 1457.519531 1548.558594 1465.199219 1545.910156 1471.578125 1549.011719 C 1490.640625 1558.289062 1509.480469 1565.089844 1528.121094 1569.390625 C 1546.171875 1573.558594 1564.058594 1575.441406 1581.800781 1575.039062 C 1581.921875 1574.980469 1582.03125 1574.910156 1582.128906 1574.828125 C 1582.359375 1574.628906 1582.558594 1574.359375 1582.699219 1574.03125 C 1582.828125 1573.730469 1582.878906 1573.378906 1582.851562 1573.03125 C 1582.839844 1572.859375 1582.820312 1572.699219 1582.78125 1572.558594 C 1565.328125 1551.578125 1552.789062 1531.300781 1545.148438 1511.710938 C 1537.089844 1491.019531 1534.511719 1471.191406 1537.398438 1452.210938 C 1538.460938 1445.191406 1545 1440.359375 1552.011719 1441.421875 C 1559.019531 1442.46875 1563.851562 1449.011719 1562.800781 1456.019531 C 1561.398438 1465.199219 1561.710938 1474.738281 1563.71875 1484.640625 L 1643.261719 1401.121094 L 1643.269531 1401.121094 C 1647.539062 1396.621094 1654.558594 1395.769531 1659.828125 1399.410156 C 1674.308594 1409.410156 1688.578125 1421.011719 1702.628906 1434.269531 C 1716.011719 1446.890625 1729.289062 1461.101562 1742.449219 1476.949219 C 1743.691406 1477.441406 1745.03125 1477.628906 1746.351562 1477.53125 C 1746.929688 1477.488281 1747.5 1477.390625 1748.050781 1477.238281 C 1765.121094 1373.691406 1784.691406 1339.441406 1824.878906 1269.140625 C 1835.371094 1250.789062 1847.28125 1229.960938 1860.5 1205.539062 C 1860.429688 1205.320312 1860.339844 1205.101562 1860.238281 1204.910156 C 1859.859375 1204.199219 1859.261719 1203.589844 1858.480469 1203.160156 C 1857.71875 1202.738281 1856.851562 1202.558594 1856.011719 1202.621094 C 1855.28125 1202.679688 1854.550781 1202.921875 1853.898438 1203.359375 C 1853.039062 1204.039062 1852.078125 1204.621094 1851.019531 1205.070312 C 1827.019531 1215.441406 1802.128906 1227 1776.371094 1239.738281 C 1750.351562 1252.609375 1723.441406 1266.648438 1695.648438 1281.851562 C 1692.929688 1283.558594 1689.558594 1284.25 1686.171875 1283.539062 L 1685.949219 1283.488281 L 1685.699219 1283.441406 L 1685.03125 1283.308594 L 1685.03125 1283.289062 L 1426.230469 1234.730469 C 1426.03125 1234.710938 1425.828125 1234.679688 1425.628906 1234.640625 C 1418.648438 1233.421875 1413.96875 1226.769531 1415.191406 1219.789062 C 1420.78125 1188.101562 1428.289062 1158.851562 1437.699219 1132.039062 C 1447.121094 1105.179688 1458.441406 1080.910156 1471.640625 1059.21875 C 1470.550781 1059.699219 1469.371094 1060.039062 1468.128906 1060.210938 C 1426.308594 1065.960938 1386.878906 1079.910156 1349.859375 1102.078125 C 1312.75 1124.289062 1278 1154.769531 1245.628906 1193.480469 C 1242.800781 1197.308594 1237.941406 1199.398438 1232.949219 1198.46875 L 823.460938 1121.628906 C 816.613281 1120.351562 808.535156 1121.28125 800.972656 1123.839844 C 795.042969 1125.851562 789.640625 1128.78125 785.605469 1132.339844 C 782.304688 1135.261719 780.019531 1138.5 779.40625 1141.78125 C 779.105469 1143.378906 779.222656 1145.140625 779.859375 1147.011719 L 860.660156 1385.601562 C 917.355469 1440.480469 966.785156 1466.871094 1008.949219 1464.738281 C 1016.019531 1464.410156 1022.019531 1469.871094 1022.351562 1476.941406 C 1022.679688 1484.011719 1017.21875 1490.011719 1010.148438 1490.339844 C 969.988281 1492.359375 925.695312 1473.800781 877.273438 1434.648438 L 908.878906 1527.980469 C 909.894531 1530.980469 909.089844 1528.640625 910.429688 1532.628906 C 917.519531 1553.789062 923.703125 1572.238281 942.492188 1577.898438 L 1097.960938 1624.71875 C 1094.398438 1599.488281 1093.710938 1572.738281 1095.921875 1544.46875 C 1096.449219 1537.398438 1102.601562 1532.101562 1109.671875 1532.621094 C 1116.738281 1533.148438 1122.039062 1539.308594 1121.519531 1546.378906 C 1118.941406 1579.359375 1120.539062 1609.980469 1126.308594 1638.25 Z M 1103.359375 1653.148438 L 935.160156 1602.488281 C 903.644531 1593 895.488281 1568.671875 886.136719 1540.761719 C 885.820312 1539.820312 886.648438 1542.300781 884.585938 1536.210938 L 838.316406 1399.589844 C 835.683594 1396.789062 834.542969 1393.089844 834.902344 1389.511719 L 755.566406 1155.25 C 753.453125 1149 753.113281 1142.898438 754.210938 1137.058594 C 755.941406 1127.828125 761.230469 1119.730469 768.644531 1113.171875 C 775.320312 1107.269531 783.773438 1102.578125 792.738281 1099.550781 C 804.226562 1095.660156 816.921875 1094.328125 828.179688 1096.441406 L 1230.371094 1171.898438 C 1263.398438 1133.359375 1298.851562 1102.761719 1336.710938 1080.089844 C 1376.210938 1056.441406 1418.289062 1041.429688 1462.960938 1035.058594 C 1467.511719 1033.410156 1472.351562 1033.121094 1476.960938 1034.089844 C 1482.160156 1035.179688 1487.039062 1037.898438 1490.78125 1042.089844 C 1494.519531 1046.261719 1496.679688 1051.410156 1497.199219 1056.71875 C 1497.710938 1062 1496.558594 1067.460938 1493.691406 1072.269531 L 1493.628906 1072.371094 L 1493.640625 1072.371094 C 1481.300781 1092.609375 1470.71875 1115.308594 1461.890625 1140.46875 C 1454.230469 1162.289062 1447.871094 1186.050781 1442.808594 1211.761719 L 1686.75 1257.53125 C 1714.03125 1242.660156 1740.128906 1229.070312 1765.03125 1216.75 C 1791.191406 1203.808594 1816.070312 1192.230469 1839.671875 1182.011719 C 1844.058594 1179.070312 1849.078125 1177.398438 1854.199219 1177.03125 C 1859.859375 1176.621094 1865.640625 1177.820312 1870.828125 1180.679688 C 1876.011719 1183.539062 1880.128906 1187.808594 1882.820312 1192.859375 C 1885.519531 1197.921875 1886.789062 1203.691406 1886.289062 1209.519531 C 1886.121094 1211.621094 1885.449219 1213.550781 1884.421875 1215.21875 C 1869.960938 1242.011719 1857.820312 1263.261719 1847.160156 1281.890625 C 1807.730469 1350.859375 1788.910156 1383.789062 1772.378906 1487.21875 C 1771.890625 1490.351562 1770.289062 1493.03125 1768.058594 1494.941406 L 1768.058594 1494.949219 C 1762.328125 1499.839844 1755.371094 1502.589844 1748.261719 1503.128906 C 1741.148438 1503.660156 1733.859375 1501.988281 1727.480469 1498.019531 C 1726.011719 1497.109375 1724.789062 1495.949219 1723.839844 1494.628906 C 1711.089844 1479.171875 1698.171875 1465.289062 1685.070312 1452.941406 C 1674.808594 1443.261719 1664.5 1434.578125 1654.140625 1426.859375 L 1573.148438 1511.910156 C 1580.03125 1526.269531 1590.078125 1541.339844 1603.308594 1557.121094 L 1603.289062 1557.128906 C 1603.671875 1557.601562 1604.03125 1558.089844 1604.359375 1558.621094 C 1606.75 1562.5 1608.128906 1566.789062 1608.449219 1571.121094 C 1608.78125 1575.460938 1608.070312 1579.910156 1606.289062 1584.070312 C 1604.53125 1588.210938 1601.789062 1591.800781 1598.390625 1594.601562 C 1594.988281 1597.410156 1590.941406 1599.398438 1586.550781 1600.339844 L 1586.539062 1600.320312 C 1585.800781 1600.480469 1585.03125 1600.570312 1584.238281 1600.589844 C 1563.691406 1601.230469 1543.070312 1599.160156 1522.398438 1594.390625 C 1515.058594 1592.691406 1507.71875 1590.660156 1500.378906 1588.300781 L 1413.289062 1679.535156 C 1408.871094 1684.160156 1404.710938 1689.542969 1400.660156 1694.792969 C 1385.070312 1714.972656 1370.648438 1733.652344 1342.230469 1725.09375 L 1265.28125 1701.914062 C 1265.261719 1702.9375 1265.238281 1703.960938 1265.21875 1704.980469 C 1264.839844 1735.972656 1270.109375 1767.476562 1281.011719 1799.480469 L 1281 1799.484375 C 1281.390625 1800.621094 1281.621094 1801.835938 1281.671875 1803.09375 C 1281.890625 1808.667969 1280.550781 1814.078125 1277.929688 1818.789062 C 1275.308594 1823.5 1271.429688 1827.503906 1266.570312 1830.257812 C 1261.769531 1832.984375 1256.410156 1834.269531 1251.101562 1834.132812 L 1250.890625 1834.128906 C 1245.789062 1833.96875 1240.738281 1832.507812 1236.261719 1829.765625 C 1236.078125 1829.664062 1235.898438 1829.5625 1235.730469 1829.453125 C 1184.378906 1797.371094 1147.011719 1757.453125 1123.621094 1709.703125 C 1114.890625 1691.890625 1108.140625 1673.035156 1103.359375 1653.148438 Z M 1030.199219 1423.210938 C 1028.28125 1420.238281 1029.121094 1416.269531 1032.078125 1414.351562 C 1035.050781 1412.421875 1039.019531 1413.269531 1040.941406 1416.230469 C 1058.378906 1443.101562 1064.5 1474.339844 1060.148438 1504.03125 C 1055.800781 1533.730469 1040.988281 1561.921875 1016.578125 1582.660156 C 1013.878906 1584.949219 1009.839844 1584.609375 1007.550781 1581.910156 C 1005.261719 1579.210938 1005.601562 1575.160156 1008.300781 1572.871094 C 1030.230469 1554.238281 1043.539062 1528.898438 1047.449219 1502.171875 C 1051.359375 1475.449219 1045.871094 1447.351562 1030.199219 1423.210938 "></path>
<path fill-rule="evenodd" fill="rgb(78.125%, 87.889099%, 89.84375%)" fill-opacity="1" d="M 1643.269531 1401.121094 Z M 779.859375 1147.011719 L 860.660156 1385.601562 C 917.355469 1440.480469 966.785156 1466.871094 1008.949219 1464.738281 C 1016.019531 1464.410156 1022.019531 1469.871094 1022.351562 1476.941406 C 1022.679688 1484.011719 1017.21875 1490.011719 1010.148438 1490.339844 C 969.988281 1492.359375 925.695312 1473.800781 877.273438 1434.648438 L 908.878906 1527.980469 C 909.894531 1530.980469 909.089844 1528.640625 910.429688 1532.628906 C 917.519531 1553.789062 923.703125 1572.238281 942.492188 1577.898438 L 1097.960938 1624.71875 C 1094.398438 1599.488281 1093.710938 1572.738281 1095.921875 1544.46875 C 1096.449219 1537.398438 1102.601562 1532.101562 1109.671875 1532.621094 C 1116.738281 1533.148438 1122.039062 1539.308594 1121.519531 1546.378906 C 1118.941406 1579.359375 1120.539062 1609.980469 1126.308594 1638.25 C 1126.878906 1639.640625 1127.199219 1641.144531 1127.25 1642.683594 C 1131.628906 1662.453125 1138.078125 1681.046875 1146.609375 1698.460938 C 1167.808594 1741.75 1202.03125 1778.15625 1249.28125 1807.671875 L 1249.789062 1808.007812 C 1250.390625 1808.335938 1251.050781 1808.511719 1251.699219 1808.53125 L 1251.738281 1808.53125 C 1252.488281 1808.539062 1253.25 1808.355469 1253.921875 1807.972656 C 1254.621094 1807.578125 1255.171875 1807.007812 1255.539062 1806.34375 C 1255.710938 1806.039062 1255.839844 1805.710938 1255.929688 1805.367188 C 1244.648438 1771.496094 1239.21875 1737.933594 1239.621094 1704.683594 C 1239.699219 1698.5 1239.980469 1692.335938 1240.460938 1686.183594 C 1240.300781 1684.628906 1240.429688 1683.019531 1240.878906 1681.425781 C 1243.371094 1655.34375 1249.511719 1629.53125 1259.320312 1604 C 1261.839844 1597.398438 1269.230469 1594.101562 1275.828125 1596.621094 C 1282.429688 1599.140625 1285.730469 1606.53125 1283.210938 1613.128906 C 1275.269531 1633.808594 1269.949219 1654.675781 1267.269531 1675.710938 L 1349.558594 1700.496094 C 1361.179688 1703.996094 1370.410156 1692.046875 1380.378906 1679.132812 C 1384.871094 1673.316406 1389.480469 1667.351562 1394.71875 1661.867188 L 1474.308594 1578.5 C 1469.648438 1576.5 1464.988281 1574.371094 1460.328125 1572.101562 C 1453.960938 1568.988281 1451.308594 1561.308594 1454.410156 1554.929688 C 1457.519531 1548.558594 1465.199219 1545.910156 1471.578125 1549.011719 C 1490.640625 1558.289062 1509.480469 1565.089844 1528.121094 1569.390625 C 1546.171875 1573.558594 1564.058594 1575.441406 1581.800781 1575.039062 L 1582.128906 1574.828125 C 1582.359375 1574.628906 1582.558594 1574.359375 1582.699219 1574.03125 C 1582.828125 1573.730469 1582.878906 1573.378906 1582.851562 1573.03125 L 1582.78125 1572.558594 C 1565.328125 1551.578125 1552.789062 1531.300781 1545.148438 1511.710938 C 1537.089844 1491.019531 1534.511719 1471.191406 1537.398438 1452.210938 C 1538.460938 1445.191406 1545 1440.359375 1552.011719 1441.421875 C 1559.019531 1442.46875 1563.851562 1449.011719 1562.800781 1456.019531 C 1561.398438 1465.199219 1561.710938 1474.738281 1563.71875 1484.640625 L 1643.269531 1401.121094 C 1647.539062 1396.621094 1654.558594 1395.769531 1659.828125 1399.410156 C 1674.308594 1409.410156 1688.578125 1421.011719 1702.628906 1434.269531 C 1716.011719 1446.890625 1729.289062 1461.101562 1742.449219 1476.949219 C 1743.691406 1477.441406 1745.03125 1477.628906 1746.351562 1477.53125 C 1746.929688 1477.488281 1747.5 1477.390625 1748.050781 1477.238281 C 1765.121094 1373.691406 1784.691406 1339.441406 1824.878906 1269.140625 C 1835.371094 1250.789062 1847.28125 1229.960938 1860.5 1205.539062 L 1860.238281 1204.910156 C 1859.859375 1204.199219 1859.261719 1203.589844 1858.480469 1203.160156 C 1857.71875 1202.738281 1856.851562 1202.558594 1856.011719 1202.621094 C 1855.28125 1202.679688 1854.550781 1202.921875 1853.898438 1203.359375 C 1853.039062 1204.039062 1852.078125 1204.621094 1851.019531 1205.070312 C 1827.019531 1215.441406 1802.128906 1227 1776.371094 1239.738281 C 1750.351562 1252.609375 1723.441406 1266.648438 1695.648438 1281.851562 C 1692.929688 1283.558594 1689.558594 1284.25 1686.171875 1283.539062 L 1685.949219 1283.488281 L 1685.699219 1283.441406 L 1685.03125 1283.308594 L 1685.03125 1283.289062 L 1426.230469 1234.730469 L 1425.628906 1234.640625 C 1418.648438 1233.421875 1413.96875 1226.769531 1415.191406 1219.789062 C 1420.78125 1188.101562 1428.289062 1158.851562 1437.699219 1132.039062 C 1447.121094 1105.179688 1458.441406 1080.910156 1471.640625 1059.21875 C 1470.550781 1059.699219 1469.371094 1060.039062 1468.128906 1060.210938 C 1426.308594 1065.960938 1386.878906 1079.910156 1349.859375 1102.078125 C 1312.75 1124.289062 1278 1154.769531 1245.628906 1193.480469 C 1242.800781 1197.308594 1237.941406 1199.398438 1232.949219 1198.46875 L 823.460938 1121.628906 C 816.613281 1120.351562 808.535156 1121.28125 800.972656 1123.839844 C 795.042969 1125.851562 789.640625 1128.78125 785.605469 1132.339844 C 782.304688 1135.261719 780.019531 1138.5 779.40625 1141.78125 C 779.105469 1143.378906 779.222656 1145.140625 779.859375 1147.011719 Z M 1074.671875 1424.898438 C 1092.109375 1451.769531 1098.21875 1483.011719 1093.878906 1512.699219 C 1089.53125 1542.410156 1074.71875 1570.589844 1050.308594 1591.328125 C 1047.609375 1593.621094 1043.570312 1593.28125 1041.28125 1590.578125 C 1038.988281 1587.878906 1039.328125 1583.828125 1042.03125 1581.550781 C 1063.960938 1562.910156 1077.269531 1537.570312 1081.179688 1510.851562 C 1085.089844 1484.121094 1079.601562 1456.019531 1063.929688 1431.878906 C 1062.011719 1428.921875 1062.851562 1424.949219 1065.808594 1423.019531 C 1068.78125 1421.101562 1072.75 1421.941406 1074.671875 1424.898438 Z M 1040.941406 1416.230469 C 1058.378906 1443.101562 1064.5 1474.339844 1060.148438 1504.03125 C 1055.800781 1533.730469 1040.988281 1561.921875 1016.578125 1582.660156 C 1013.878906 1584.949219 1009.839844 1584.609375 1007.550781 1581.910156 C 1005.261719 1579.210938 1005.601562 1575.160156 1008.300781 1572.871094 C 1030.230469 1554.238281 1043.539062 1528.898438 1047.449219 1502.171875 C 1051.359375 1475.449219 1045.871094 1447.351562 1030.199219 1423.210938 C 1028.28125 1420.238281 1029.121094 1416.269531 1032.078125 1414.351562 C 1035.050781 1412.421875 1039.019531 1413.269531 1040.941406 1416.230469 "></path>
<path fill-rule="evenodd" fill="rgb(100%, 100%, 100%)" fill-opacity="1" d="M 992.195312 1545.96875 C 971.503906 1528.699219 955.011719 1505.429688 942.71875 1476.171875 C 921.8125 1466.859375 899.996094 1453.019531 877.273438 1434.648438 L 908.878906 1527.980469 C 909.894531 1530.980469 909.089844 1528.640625 910.429688 1532.628906 C 917.519531 1553.789062 923.703125 1572.238281 942.492188 1577.898438 L 1097.960938 1624.71875 C 1095.960938 1610.558594 1094.871094 1595.921875 1094.679688 1580.800781 C 1086.160156 1578.050781 1077.460938 1575.199219 1068.570312 1572.25 C 1063.25 1579.109375 1057.160156 1585.511719 1050.308594 1591.328125 C 1047.609375 1593.621094 1043.570312 1593.28125 1041.28125 1590.578125 C 1038.988281 1587.878906 1039.328125 1583.828125 1042.03125 1581.550781 C 1047 1577.320312 1051.519531 1572.761719 1055.601562 1567.910156 C 1049.308594 1565.800781 1042.941406 1563.628906 1036.480469 1561.421875 C 1030.789062 1569.101562 1024.140625 1576.230469 1016.578125 1582.660156 C 1013.878906 1584.949219 1009.839844 1584.609375 1007.550781 1581.910156 C 1005.261719 1579.210938 1005.601562 1575.160156 1008.300781 1572.871094 C 1014.019531 1568.011719 1019.160156 1562.691406 1023.691406 1557.011719 C 1013.410156 1553.449219 1002.910156 1549.769531 992.195312 1545.96875 Z M 980.980469 1488.320312 L 984.390625 1506.601562 L 992.632812 1489.941406 C 988.785156 1489.578125 984.902344 1489.039062 980.980469 1488.320312 Z M 963.90625 1484.140625 C 960.402344 1483.070312 956.875 1481.871094 953.320312 1480.53125 L 956.707031 1498.691406 Z M 1562.511719 1477.089844 C 1562.800781 1479.578125 1563.199219 1482.101562 1563.71875 1484.640625 L 1609.21875 1436.871094 C 1594 1450.480469 1578.429688 1463.878906 1562.511719 1477.089844 Z M 1277.410156 1629.730469 C 1272.621094 1644.960938 1269.238281 1660.289062 1267.269531 1675.710938 L 1349.558594 1700.496094 C 1361.179688 1703.996094 1370.410156 1692.046875 1380.378906 1679.132812 C 1384.871094 1673.316406 1389.480469 1667.351562 1394.71875 1661.867188 L 1474.308594 1578.5 C 1469.648438 1576.5 1464.988281 1574.371094 1460.328125 1572.101562 C 1455.839844 1569.910156 1453.191406 1565.441406 1453.109375 1560.761719 C 1416.070312 1586.929688 1377.429688 1612.191406 1337.199219 1636.550781 C 1320.75 1636.230469 1300.820312 1633.949219 1277.410156 1629.730469 "></path>
<path fill-rule="evenodd" fill="rgb(0%, 0%, 0%)" fill-opacity="1" d="M 1080.378906 1075.261719 C 1143.648438 1084.570312 1185.558594 1155.960938 1173.96875 1234.730469 C 1162.390625 1313.488281 1101.699219 1369.800781 1038.429688 1360.488281 C 975.152344 1351.191406 933.246094 1279.789062 944.835938 1201.03125 C 956.417969 1122.261719 1017.109375 1065.949219 1080.378906 1075.261719 "></path>
<path fill-rule="evenodd" fill="rgb(89.84375%, 82.8125%, 89.84375%)" fill-opacity="1" d="M 1081.21875 1099.980469 C 1133.53125 1107.671875 1168.171875 1166.691406 1158.589844 1231.808594 C 1149.019531 1296.921875 1098.851562 1343.46875 1046.539062 1335.769531 C 994.234375 1328.078125 959.597656 1269.058594 969.175781 1203.949219 C 972.21875 1183.25 979.363281 1164.441406 989.371094 1148.648438 C 982.910156 1160.75 978.277344 1174.53125 976.085938 1189.421875 C 967.742188 1246.128906 997.914062 1297.539062 1043.46875 1304.238281 C 1089.03125 1310.941406 1132.71875 1270.398438 1141.058594 1213.691406 C 1149.179688 1158.511719 1120.839844 1108.359375 1077.339844 1099.519531 C 1078.628906 1099.640625 1079.929688 1099.789062 1081.21875 1099.980469 "></path>
<path fill-rule="evenodd" fill="rgb(100%, 100%, 100%)" fill-opacity="1" d="M 1044.890625 1109.210938 C 1060.039062 1111.429688 1070.070312 1128.53125 1067.300781 1147.390625 C 1064.519531 1166.25 1049.988281 1179.738281 1034.839844 1177.511719 C 1019.691406 1175.28125 1009.648438 1158.179688 1012.429688 1139.320312 C 1015.199219 1120.460938 1029.730469 1106.980469 1044.890625 1109.210938 "></path>
<path fill-rule="nonzero" fill="rgb(0%, 0%, 0%)" fill-opacity="1" d="M 880.84375 1437.75 C 880.207031 1434.269531 882.511719 1430.929688 885.988281 1430.289062 C 889.46875 1429.648438 892.808594 1431.960938 893.445312 1435.441406 L 899.585938 1468.378906 L 911.277344 1444.738281 C 912.84375 1441.570312 916.6875 1440.261719 919.859375 1441.828125 C 923.03125 1443.390625 924.335938 1447.238281 922.769531 1450.410156 L 902.558594 1491.28125 L 902.554688 1491.269531 C 901.6875 1493.03125 900.035156 1494.359375 897.964844 1494.738281 C 894.488281 1495.378906 891.148438 1493.070312 890.511719 1489.589844 L 880.84375 1437.75 "></path>
<path fill-rule="nonzero" fill="rgb(0%, 0%, 0%)" fill-opacity="1" d="M 909.40625 1455.320312 C 908.769531 1451.839844 911.074219 1448.5 914.550781 1447.871094 C 918.03125 1447.230469 921.367188 1449.53125 922.003906 1453.011719 L 928.148438 1485.949219 L 939.835938 1462.320312 C 941.402344 1459.140625 945.246094 1457.839844 948.417969 1459.398438 C 951.59375 1460.96875 952.894531 1464.808594 951.328125 1467.988281 L 931.117188 1508.851562 L 931.113281 1508.851562 C 930.25 1510.601562 928.597656 1511.941406 926.527344 1512.308594 C 923.046875 1512.949219 919.710938 1510.648438 919.074219 1507.171875 L 909.40625 1455.320312 "></path>
<path fill-rule="nonzero" fill="rgb(0%, 0%, 0%)" fill-opacity="1" d="M 937.96875 1468.058594 C 937.328125 1464.578125 939.632812 1461.25 943.113281 1460.609375 C 946.589844 1459.96875 949.929688 1462.28125 950.566406 1465.75 L 956.707031 1498.691406 L 968.398438 1475.058594 C 969.964844 1471.878906 973.808594 1470.578125 976.980469 1472.148438 C 980.152344 1473.710938 981.457031 1477.558594 979.890625 1480.730469 L 959.679688 1521.589844 L 959.675781 1521.589844 C 958.8125 1523.339844 957.15625 1524.679688 955.089844 1525.058594 C 951.609375 1525.691406 948.273438 1523.390625 947.632812 1519.910156 L 937.96875 1468.058594 "></path>
<path fill-rule="nonzero" fill="rgb(0%, 0%, 0%)" fill-opacity="1" d="M 965.648438 1475.96875 C 965.011719 1472.488281 967.316406 1469.160156 970.792969 1468.519531 C 974.273438 1467.878906 977.609375 1470.179688 978.246094 1473.660156 L 984.390625 1506.601562 L 996.082031 1482.96875 C 997.644531 1479.789062 1001.488281 1478.488281 1004.660156 1480.058594 C 1007.839844 1481.621094 1009.140625 1485.46875 1007.570312 1488.640625 L 987.363281 1529.5 L 987.359375 1529.5 C 986.492188 1531.25 984.839844 1532.589844 982.769531 1532.96875 C 979.292969 1533.601562 975.953125 1531.300781 975.316406 1527.820312 L 965.648438 1475.96875 "></path>












</svg>