<?xml version="1.0" standalone="no"?>
<!DOCTYPE svg PUBLIC "-//W3C//DTD SVG 20010904//EN"
 "http://www.w3.org/TR/2001/REC-SVG-20010904/DTD/svg10.dtd">
<svg version="1.0" xmlns="http://www.w3.org/2000/svg"
 width="1511.000000pt" height="1511.000000pt" viewBox="0 0 1511.000000 1511.000000"
 preserveAspectRatio="xMidYMid meet">
<metadata>
Created by potrace 1.14, written by Peter Selinger 2001-2017
</metadata>
<g transform="translate(0.000000,1511.000000) scale(0.100000,-0.100000)"
fill="#000000" stroke="none">
<path d="M11310 11950 c0 -6 -4 -9 -10 -5 -10 6 -39 -32 -44 -61 -2 -11 -7
-30 -10 -44 -3 -14 -8 -47 -11 -75 -3 -27 -10 -77 -15 -110 -12 -77 -17 -106
-35 -240 -25 -170 -35 -238 -41 -270 -3 -11 -6 -36 -9 -55 -2 -19 -5 -35 -6
-35 -1 0 -3 -9 -4 -20 -13 -98 -18 -127 -30 -174 -8 -30 -12 -58 -9 -63 3 -4
0 -8 -5 -8 -6 0 -10 -3 -9 -7 0 -5 -1 -15 -5 -23 -3 -8 -22 -67 -42 -130 -46
-141 -85 -225 -125 -268 -16 -18 -30 -30 -30 -27 0 8 -62 -35 -72 -50 -4 -5
-8 -6 -8 -2 0 4 -9 3 -20 -3 -21 -11 -179 -48 -240 -56 -19 -3 -63 -11 -98
-19 -35 -8 -74 -15 -88 -15 -13 0 -24 -4 -24 -10 0 -5 -7 -7 -15 -4 -8 4 -23
3 -32 -1 -10 -5 -27 -9 -38 -10 -11 -1 -38 -5 -60 -10 -22 -5 -47 -9 -55 -11
-48 -9 -86 -16 -90 -17 -3 0 -21 -4 -40 -9 -19 -5 -48 -11 -63 -13 -27 -4
-106 -19 -157 -29 -14 -3 -133 -26 -265 -52 -132 -25 -247 -48 -255 -51 -8 -3
-24 -7 -35 -8 -30 -4 -72 -12 -280 -55 -104 -22 -203 -43 -220 -46 -92 -17
-391 -92 -560 -139 -71 -20 -137 -38 -145 -40 -20 -4 -195 -52 -245 -67 -22
-6 -44 -12 -50 -14 -5 -1 -37 -10 -70 -20 -33 -10 -64 -19 -70 -20 -5 -1 -71
-21 -145 -43 -74 -23 -140 -41 -147 -41 -7 0 -13 -5 -13 -11 0 -5 -4 -8 -9 -5
-5 4 -22 1 -38 -5 -24 -9 -226 -71 -273 -84 -33 -8 -416 -126 -430 -132 -8 -4
-17 -7 -20 -8 -3 0 -39 -11 -80 -25 -41 -13 -82 -25 -91 -26 -9 -2 -56 -17
-105 -33 -49 -16 -183 -59 -299 -96 -115 -36 -219 -70 -230 -75 -11 -5 -74
-25 -140 -46 -66 -20 -131 -41 -145 -47 -14 -6 -29 -11 -35 -11 -27 -3 -181
-60 -187 -70 -4 -6 -8 -8 -8 -4 0 4 -30 -5 -67 -19 -158 -60 -203 -77 -303
-111 -58 -19 -108 -39 -111 -44 -3 -6 -9 -9 -13 -8 -4 1 -26 -5 -49 -13 -23
-8 -159 -58 -302 -110 -143 -53 -284 -104 -312 -114 -29 -10 -53 -21 -53 -26
0 -4 -4 -6 -9 -3 -5 3 -24 0 -42 -8 -19 -7 -43 -17 -54 -21 -11 -4 -24 -9 -30
-11 -31 -8 -311 -117 -315 -122 -3 -4 -9 -7 -15 -8 -22 -1 -65 -17 -65 -23 0
-4 -6 -8 -13 -8 -7 0 -74 -23 -149 -51 -74 -29 -140 -52 -146 -52 -7 0 -12 -5
-12 -10 0 -6 -3 -9 -7 -8 -14 4 -103 -25 -103 -33 0 -5 -3 -8 -7 -8 -5 1 -10
0 -13 -1 -3 -1 -12 -3 -20 -5 -34 -8 -145 -50 -151 -58 -3 -5 -8 -8 -10 -6
-10 5 -153 -49 -404 -153 -188 -78 -220 -91 -220 -87 0 1 -11 -4 -25 -11 -14
-8 -27 -15 -30 -15 -7 -2 -60 -23 -85 -34 -11 -5 -43 -18 -72 -30 -28 -12 -64
-26 -80 -33 -15 -6 -31 -12 -35 -12 -3 -1 -10 -4 -14 -8 -4 -5 -16 -8 -26 -8
-10 0 -18 -5 -18 -12 0 -6 -3 -9 -6 -5 -6 5 -123 -41 -134 -53 -3 -3 -9 -6
-15 -7 -5 -1 -31 -11 -58 -22 -26 -11 -49 -20 -52 -21 -3 0 -29 -12 -58 -27
-28 -15 -55 -27 -58 -28 -14 -1 -174 -81 -181 -90 -4 -5 -8 -7 -8 -2 0 9 -82
-32 -91 -45 -3 -5 -10 -9 -15 -8 -13 1 -88 -33 -96 -45 -4 -5 -8 -7 -8 -3 0 4
-30 -8 -67 -26 -94 -47 -261 -125 -305 -143 -21 -8 -36 -18 -33 -22 2 -4 -1
-8 -8 -8 -19 0 -147 -73 -147 -84 0 -6 -4 -8 -9 -5 -10 7 -161 -137 -161 -153
0 -5 -6 -16 -14 -24 -23 -22 -46 -103 -46 -159 0 -64 30 -126 76 -157 37 -25
183 -86 230 -96 51 -11 217 -34 289 -40 39 -4 81 -8 95 -10 14 -2 54 -7 89
-10 35 -3 78 -8 95 -10 31 -4 146 -11 371 -20 132 -5 195 -11 300 -26 39 -5
97 -12 130 -14 33 -3 67 -7 75 -10 33 -9 292 -18 619 -20 190 -2 409 -6 486
-10 77 -3 198 -8 269 -11 129 -4 151 -8 129 -22 -7 -4 -19 -25 -28 -45 -27
-64 -3 -186 47 -249 39 -47 206 -105 329 -113 32 -2 62 -5 66 -7 26 -13 1509
-17 1793 -5 80 3 215 9 300 12 85 2 165 7 177 9 12 3 70 7 130 11 60 3 122 8
138 10 17 2 62 7 100 10 39 3 115 10 170 16 108 12 136 15 235 24 36 4 67 8
70 10 3 2 33 7 65 10 33 4 63 9 66 11 3 1 28 6 55 10 27 3 51 8 54 9 3 2 26 6
50 10 25 3 53 8 63 11 10 3 30 7 45 9 15 2 59 11 97 20 60 14 421 88 480 99
11 1 39 6 63 10 23 4 42 11 42 15 0 4 8 7 18 8 33 3 67 10 162 36 52 15 129
33 170 42 41 8 99 25 127 36 l53 21 46 -27 c46 -27 164 -86 234 -118 216 -97
279 -126 363 -168 53 -26 97 -45 97 -41 0 4 4 2 8 -4 4 -6 27 -21 52 -32 25
-11 225 -109 445 -217 220 -109 406 -198 413 -198 6 0 12 -4 12 -9 0 -4 4 -8
10 -8 5 0 37 -13 71 -30 34 -16 67 -27 73 -23 6 3 8 3 4 -2 -5 -5 43 -30 105
-57 61 -27 131 -58 154 -68 24 -11 45 -20 47 -20 2 0 39 -16 83 -36 43 -19 87
-39 98 -44 87 -38 183 -82 198 -91 10 -5 23 -7 29 -3 7 4 8 3 4 -4 -4 -7 -3
-12 2 -12 5 0 36 -12 68 -27 33 -15 61 -27 64 -28 14 -4 62 -26 119 -54 35
-17 68 -28 72 -25 5 3 9 1 9 -3 0 -10 90 -50 102 -45 5 1 8 -2 8 -7 0 -8 24
-20 50 -26 3 -1 21 -8 40 -17 92 -41 556 -240 565 -242 6 -1 19 -7 30 -13 11
-6 70 -32 130 -58 61 -26 139 -61 175 -77 137 -63 169 -76 174 -70 3 3 6 0 6
-6 0 -7 5 -12 10 -12 6 0 42 -16 80 -35 39 -19 73 -34 75 -34 3 0 40 -17 83
-37 42 -20 83 -37 90 -37 6 0 12 -4 12 -8 0 -4 10 -11 23 -15 12 -3 49 -19 82
-35 33 -15 67 -29 75 -31 8 -2 17 -6 20 -9 3 -4 50 -27 105 -52 160 -72 214
-97 315 -145 52 -24 101 -45 108 -45 6 0 12 -4 12 -9 0 -4 5 -8 11 -8 5 0 34
-11 62 -24 172 -80 297 -129 497 -196 219 -73 309 -88 410 -66 46 9 110 37
110 47 0 4 8 10 18 13 44 14 102 172 91 247 -9 59 -48 151 -62 142 -5 -3 -7
-1 -4 4 9 14 -23 55 -103 133 -97 94 -133 125 -142 122 -4 -1 -8 2 -8 7 0 8
-71 65 -119 96 -15 10 -28 20 -55 42 -7 6 -17 9 -20 6 -3 -4 -6 -2 -6 4 0 11
-103 83 -119 83 -5 0 -11 4 -13 9 -4 10 -287 201 -298 201 -5 0 -10 3 -12 8
-5 10 -144 102 -156 102 -6 0 -12 3 -14 8 -4 10 -124 91 -139 94 -6 2 -23 13
-37 26 -14 12 -31 22 -38 22 -7 0 -14 3 -16 8 -6 13 -87 62 -104 62 -10 0 -14
3 -11 7 8 7 -70 55 -90 56 -7 0 -11 2 -8 5 5 6 -220 142 -235 142 -6 0 -10 4
-10 8 0 5 -28 23 -62 41 -35 18 -78 41 -96 52 -18 10 -68 37 -110 60 -42 22
-81 45 -87 50 -5 5 -17 9 -26 9 -10 0 -19 4 -21 8 -5 14 -154 92 -161 85 -4
-3 -7 -2 -7 4 0 14 -76 54 -86 45 -4 -4 -5 -2 -1 3 3 6 -22 24 -56 40 -34 17
-64 33 -67 36 -3 3 -34 21 -70 40 -36 19 -67 36 -70 39 -16 17 -108 58 -115
52 -5 -4 -5 -2 -2 4 4 7 -7 17 -26 25 -17 7 -34 15 -37 18 -3 3 -23 15 -45 27
-75 39 -157 85 -181 101 -13 8 -24 11 -24 7 0 -5 -4 -4 -8 2 -4 6 -38 28 -77
49 -38 21 -80 45 -92 53 -13 8 -23 10 -23 6 0 -5 -4 -4 -8 2 -8 12 -137 85
-143 81 -2 -1 -3 0 -2 2 4 6 -203 121 -216 121 -6 0 -11 4 -11 9 0 5 -10 13
-22 17 -13 3 -30 12 -38 19 -8 7 -40 26 -70 42 -30 17 -71 40 -90 51 -19 12
-53 31 -75 43 -22 12 -42 24 -45 28 -9 11 -120 81 -120 76 0 -3 -11 4 -24 17
-13 13 -35 32 -50 42 -24 18 -25 20 -9 31 10 7 72 31 138 55 187 66 258 97
491 211 88 44 169 87 180 97 11 9 26 18 34 20 8 2 20 10 27 18 6 9 14 14 17
12 3 -2 15 5 26 15 11 9 23 17 26 17 3 0 16 8 29 18 12 9 33 24 45 32 13 8 33
24 44 36 12 12 27 23 33 25 37 14 305 268 296 282 -3 6 -1 7 4 4 6 -4 19 6 29
21 10 15 24 33 31 40 24 24 103 139 103 150 0 6 4 12 9 14 11 4 101 153 101
167 0 6 4 11 9 11 9 0 37 60 33 73 -1 4 2 7 6 7 5 0 23 36 41 80 19 44 34 80
35 80 2 0 43 -9 92 -19 159 -34 270 -50 298 -43 47 11 67 51 50 96 -7 18 -158
98 -168 89 -3 -4 -6 -2 -6 4 0 6 -46 28 -102 48 -57 21 -104 38 -105 39 -2 2
4 38 13 82 38 197 49 311 49 534 0 343 -48 530 -191 745 -70 105 -216 251
-237 238 -6 -3 -7 -1 -3 6 4 6 0 14 -11 18 -10 4 -20 9 -23 13 -13 17 -109 75
-202 123 -107 56 -99 48 -211 198 -7 8 -13 22 -15 30 -2 7 -7 16 -10 19 -4 3
-9 14 -10 25 -2 11 -7 25 -12 30 -4 6 -10 19 -13 30 -3 11 -17 58 -32 105 -30
96 -73 252 -79 290 -2 14 -12 52 -21 85 -18 65 -18 65 -41 175 -14 68 -20 96
-29 140 -2 8 -4 15 -5 15 -1 0 -3 16 -5 35 -3 19 -7 46 -10 60 -3 14 -8 39
-10 55 -21 116 -25 145 -30 180 -2 22 -7 54 -10 70 -8 47 -14 87 -20 130 -4
22 -8 48 -11 57 -3 9 -6 25 -8 35 -14 69 -37 135 -53 153 -22 23 -73 37 -73
20z"/>
</g>
</svg>
