<svg version="1.1" id="Layer_1" xmlns="http://www.w3.org/2000/svg" xmlns:xlink="http://www.w3.org/1999/xlink" x="0px" y="0px"
	 width="100%" viewBox="0 0 512 341" enable-background="new 0 0 512 341" xml:space="preserve">
<path fill="#010101" opacity="1.000000" stroke="none" 
	d="
M289.000000,342.000000 
	C192.666702,342.000000 96.833389,342.000000 1.000064,342.000000 
	C1.000043,228.333389 1.000043,114.666794 1.000021,1.000141 
	C171.666550,1.000094 342.333099,1.000094 512.999756,1.000047 
	C512.999817,114.666527 512.999817,228.333054 512.999878,341.999786 
	C438.500000,342.000000 364.000000,342.000000 289.000000,342.000000 
M456.809143,259.760376 
	C455.283661,255.100967 451.022095,252.884064 445.784607,254.231491 
	C428.751282,244.871567 411.664612,235.606949 394.705841,226.113831 
	C385.435730,220.924591 376.266937,215.529068 367.314331,209.816193 
	C365.167297,208.446075 364.063416,205.441208 363.094818,202.824570 
	C370.757721,199.665421 378.627655,196.924988 386.040222,193.259628 
	C401.311432,185.708282 413.858826,175.146744 420.936646,158.526855 
	C420.659393,158.307648 420.382141,158.088440 420.282623,157.223068 
	C425.795776,154.831894 426.026611,149.784805 426.634308,144.835754 
	C428.518921,129.487762 430.664825,114.129028 421.108765,99.849319 
	C420.368317,97.936577 419.627869,96.023834 418.728210,93.699753 
	C417.544220,95.106812 417.052124,95.691605 416.092255,96.038101 
	C415.626099,95.523010 415.159912,95.007919 414.954224,93.912392 
	C414.490570,90.265068 412.571503,89.631989 408.861298,91.181396 
	C406.039642,89.503654 402.220154,88.471756 400.621826,86.002235 
	C397.986938,81.931145 396.254181,77.061203 395.088501,72.296234 
	C392.114258,60.138287 389.689362,47.846500 386.955597,35.628201 
	C386.721985,34.583977 385.825623,33.688026 385.237152,32.723198 
	C384.627594,33.597477 383.811798,34.397675 383.463928,35.365967 
	C383.082947,36.426369 383.232300,37.663952 382.981567,38.786583 
	C380.498993,49.902031 378.186554,61.061562 375.394012,72.099335 
	C373.806854,78.372627 368.899139,81.420341 362.786743,82.648117 
	C340.387726,87.147346 317.728973,90.641586 295.647247,96.363625 
	C263.491089,104.696274 231.507446,113.880043 199.901688,124.097435 
	C169.958801,133.777252 140.547409,145.119858 110.994614,155.982376 
	C80.832001,167.069046 51.017639,179.026276 22.382349,193.703644 
	C19.192869,195.338470 15.964128,197.502365 13.764318,200.234650 
	C12.449876,201.867279 13.103312,205.084259 13.214815,208.022949 
	C14.358748,208.729752 15.502682,209.436569 17.350220,210.408081 
	C19.560680,210.850937 21.771139,211.293777 24.211569,212.185806 
	C24.806442,212.175110 25.401316,212.164413 26.770233,212.210831 
	C28.840256,212.375427 30.910276,212.540009 33.309048,213.183792 
	C34.204411,213.197388 35.099773,213.210999 36.802578,213.297470 
	C40.195702,213.443878 43.588825,213.590286 47.475914,214.253326 
	C49.315781,214.241684 51.155647,214.230057 53.843868,214.241623 
	C58.889072,214.724319 63.934273,215.207031 69.312744,216.163773 
	C70.207329,216.156509 71.101921,216.149246 72.933342,216.195465 
	C84.283936,216.390869 95.634537,216.586273 107.468819,217.305176 
	C109.311218,217.261703 111.153610,217.218246 113.893341,217.219452 
	C118.590759,217.410629 123.288185,217.601791 128.207275,218.247803 
	C128.803223,218.237778 129.399185,218.227753 130.814407,218.279236 
	C134.573944,218.815384 138.333496,219.351532 141.966248,220.390625 
	C141.890945,220.723679 141.815643,221.056717 140.841003,221.465027 
	C135.552811,221.821274 130.246994,222.025803 124.988297,222.636154 
	C123.604980,222.796722 121.199303,224.374588 121.288765,225.021454 
	C121.527367,226.746719 122.528023,228.732452 123.867546,229.834702 
	C125.157921,230.896500 127.251038,231.430756 128.991455,231.430725 
	C156.752380,231.430420 184.555862,232.203766 212.258911,230.888901 
	C230.022354,230.045792 247.697006,226.424957 265.294922,223.376526 
	C274.325043,221.812286 283.099579,218.772659 292.653046,216.722305 
	C299.160370,220.002930 305.563019,223.514496 312.195099,226.519806 
	C330.323517,234.734634 347.546143,244.779373 366.023254,252.335876 
	C385.708801,260.386566 405.007599,269.384735 424.457947,278.008270 
	C445.116913,287.167664 465.687744,296.530975 486.454071,305.439178 
	C491.238525,307.491577 496.607544,308.666931 501.807648,309.135895 
	C507.659515,309.663605 510.776672,304.984650 508.230072,299.625061 
	C506.656372,296.313110 504.056488,293.140778 501.159241,290.875122 
	C494.231323,285.457550 486.864716,280.599640 479.656250,275.542816 
	C474.385956,271.845673 469.085541,268.191559 464.215118,264.050446 
	C464.177338,263.525970 464.139557,263.001495 464.101776,262.477051 
	C463.568695,262.706970 463.035583,262.936890 461.998901,263.715851 
	C460.226288,262.660858 458.453705,261.605865 456.809143,259.760376 
M165.497894,235.866867 
	C157.283691,235.866867 149.069489,235.866867 140.855286,235.866867 
	C140.864731,236.119812 140.874191,236.372742 140.883652,236.625687 
	C154.544327,236.625687 168.205002,236.625687 181.865692,236.625687 
	C181.865631,236.372665 181.865570,236.119659 181.865509,235.866638 
	C176.742493,235.866638 171.619476,235.866638 165.497894,235.866867 
z"/>
<path fill="#5B9BD9" opacity="1.000000" stroke="none" 
	d="
M414.693756,94.492828 
	C415.159912,95.007919 415.626099,95.523010 416.490051,96.441010 
	C418.186371,98.008316 419.484863,99.172714 420.783356,100.337112 
	C430.664825,114.129028 428.518921,129.487762 426.634308,144.835754 
	C426.026611,149.784805 425.795776,154.831894 419.844330,157.651489 
	C415.613922,160.698410 411.821808,163.316895 407.716309,166.102402 
	C398.144501,170.594788 389.011841,175.220490 379.594116,179.165771 
	C369.005432,183.601624 358.329437,188.029160 346.487823,187.963806 
	C343.039551,187.944778 339.456757,188.625122 337.298462,184.445892 
	C336.071106,178.521088 337.887421,174.046661 341.950897,170.247467 
	C344.677246,167.698471 346.695251,164.019241 344.321838,161.053711 
	C342.882324,159.255081 338.785675,159.370163 335.836426,159.043594 
	C331.615295,158.576172 327.351532,158.495758 323.106537,158.240601 
	C321.013245,158.114792 318.748230,157.374878 316.856842,157.926849 
	C304.996368,161.388107 293.255798,165.259583 281.400818,168.740784 
	C274.306335,170.824097 267.075958,172.444626 259.747620,173.957932 
	C257.373383,174.019608 255.158157,174.396500 252.680908,174.763641 
	C252.278595,174.858139 252.138306,174.962387 251.722534,175.073364 
	C250.936432,175.274582 250.425781,175.469086 249.530701,175.689972 
	C247.433701,176.161057 245.721161,176.605759 243.760681,177.040985 
	C243.178375,177.176193 242.983475,177.428604 242.561691,177.812958 
	C239.199066,174.945419 235.627853,175.946167 232.189316,176.458969 
	C229.117615,176.917053 226.048080,177.484879 223.040573,178.251419 
	C219.984802,179.030258 217.006058,180.111359 213.835052,180.994598 
	C213.436768,180.890228 213.220627,180.944839 212.705215,180.880295 
	C211.257614,181.021820 210.132889,181.375992 208.674515,181.762955 
	C207.895523,181.830780 207.450180,181.865829 206.694717,181.702026 
	C205.289749,181.834763 204.194901,182.166351 202.753036,182.579865 
	C201.950302,182.793991 201.494583,182.926208 200.697418,182.871643 
	C198.649231,183.078461 196.942490,183.472076 194.811676,183.773132 
	C190.908508,184.178101 187.429413,184.675613 183.532257,185.149399 
	C181.187668,185.143738 179.261154,185.161819 177.019409,185.048798 
	C176.486877,184.849991 176.269562,184.782272 175.949615,184.411133 
	C174.903824,183.756653 173.960693,183.405609 172.607941,183.027817 
	C166.384613,182.426407 160.549011,181.221695 154.762253,181.422699 
	C145.771561,181.735016 136.814117,183.004013 127.387817,183.903046 
	C122.626801,183.991394 118.281723,183.704895 114.025139,184.191879 
	C109.725586,184.683792 105.513748,185.942413 100.838959,186.951050 
	C90.927498,189.427383 81.349030,191.510162 71.980331,194.297882 
	C63.250385,196.895584 54.885906,200.780167 46.098415,203.109314 
	C37.358345,205.425888 28.291960,206.511368 19.030506,207.877960 
	C16.752287,207.609177 14.812228,207.599121 12.872169,207.589081 
	C13.103312,205.084259 12.449876,201.867279 13.764318,200.234650 
	C15.964128,197.502365 19.192869,195.338470 22.382349,193.703644 
	C51.017639,179.026276 80.832001,167.069046 110.994614,155.982376 
	C140.547409,145.119858 169.958801,133.777252 199.901688,124.097435 
	C231.507446,113.880043 263.491089,104.696274 295.647247,96.363625 
	C317.728973,90.641586 340.387726,87.147346 362.786743,82.648117 
	C368.899139,81.420341 373.806854,78.372627 375.394012,72.099335 
	C378.186554,61.061562 380.498993,49.902031 382.981567,38.786583 
	C383.232300,37.663952 383.082947,36.426369 383.463928,35.365967 
	C383.811798,34.397675 384.627594,33.597477 385.237152,32.723198 
	C385.825623,33.688026 386.721985,34.583977 386.955597,35.628201 
	C389.689362,47.846500 392.114258,60.138287 395.088501,72.296234 
	C396.254181,77.061203 397.986938,81.931145 400.621826,86.002235 
	C402.220154,88.471756 406.039642,89.503654 409.402130,91.514107 
	C411.526550,92.728821 413.110168,93.610825 414.693756,94.492828 
z"/>
<path fill="#E3E4E4" opacity="1.000000" stroke="none" 
	d="
M337.347321,184.831360 
	C339.456757,188.625122 343.039551,187.944778 346.487823,187.963806 
	C358.329437,188.029160 369.005432,183.601624 379.594116,179.165771 
	C389.011841,175.220490 398.144501,170.594788 408.079590,166.134262 
	C412.793945,163.688690 416.831696,161.378265 420.869446,159.067841 
	C413.858826,175.146744 401.311432,185.708282 386.040222,193.259628 
	C378.627655,196.924988 370.757721,199.665421 362.410461,202.771301 
	C359.473328,202.568314 357.215881,202.244568 354.968597,202.303909 
	C349.748566,202.441788 344.532043,202.972961 339.316833,202.937561 
	C335.958160,202.914764 332.579468,201.687836 329.254181,201.859802 
	C324.036591,202.129639 318.795135,202.830917 313.678589,203.899261 
	C308.959015,204.884750 304.032013,205.935089 299.872070,208.198654 
	C296.697144,209.926254 294.578278,213.594711 291.989624,216.399780 
	C283.099579,218.772659 274.325043,221.812286 265.294922,223.376526 
	C247.697006,226.424957 230.022354,230.045792 212.258911,230.888901 
	C184.555862,232.203766 156.752380,231.430420 128.991455,231.430725 
	C127.251038,231.430756 125.157921,230.896500 123.867546,229.834702 
	C122.528023,228.732452 121.527367,226.746719 121.288765,225.021454 
	C121.199303,224.374588 123.604980,222.796722 124.988297,222.636154 
	C130.246994,222.025803 135.552811,221.821274 141.676788,221.616959 
	C145.656677,222.352295 148.800812,222.935699 151.944931,223.519119 
	C152.057571,222.822006 152.170197,222.124908 152.282837,221.427795 
	C148.886230,220.914429 145.489639,220.401062 142.093033,219.887695 
	C138.333496,219.351532 134.573944,218.815384 130.288635,218.039978 
	C129.170441,217.798126 128.578018,217.795547 127.985603,217.792969 
	C123.288185,217.601791 118.590759,217.410629 113.184082,216.967102 
	C110.644920,216.737045 108.815025,216.759354 106.985130,216.781677 
	C95.634537,216.586273 84.283936,216.390869 72.291901,215.948517 
	C70.760139,215.697632 69.869804,215.693680 68.979477,215.689728 
	C63.934273,215.207031 58.889072,214.724319 53.142532,214.020630 
	C50.621449,213.778671 48.801697,213.757690 46.981949,213.736710 
	C43.588825,213.590286 40.195702,213.443878 36.225777,213.040070 
	C34.759418,212.756638 33.869858,212.730621 32.980297,212.704590 
	C30.910276,212.540009 28.840256,212.375427 26.261959,211.975891 
	C25.162989,211.739517 24.572294,211.738083 23.981598,211.736633 
	C21.771139,211.293777 19.560680,210.850937 17.049347,209.909363 
	C17.621872,208.985992 18.495268,208.561340 19.368664,208.136688 
	C28.291960,206.511368 37.358345,205.425888 46.098415,203.109314 
	C54.885906,200.780167 63.250385,196.895584 71.980331,194.297882 
	C81.349030,191.510162 90.927498,189.427383 101.145798,187.063080 
	C103.655273,187.005768 105.570061,186.450745 107.188049,186.919724 
	C114.612839,189.071808 121.724213,186.590454 129.400360,185.822266 
	C135.811874,185.433044 141.770569,184.780563 147.735657,184.715607 
	C155.822067,184.627533 163.913406,184.989670 171.982712,185.468903 
	C172.607086,186.013275 173.380264,186.588852 173.866852,186.405197 
	C174.690659,186.094223 175.333405,185.303574 176.052261,184.714569 
	C176.269562,184.782272 176.486877,184.849991 177.070007,185.370682 
	C180.286255,186.041290 183.136658,186.258896 186.390564,186.645874 
	C189.524277,186.494858 192.254486,186.174469 195.431534,185.846039 
	C197.027740,185.760986 198.176132,185.637772 199.326584,185.614288 
	C208.886887,185.419067 218.447540,185.242279 228.276886,185.084503 
	C228.698120,185.013489 228.850571,184.917908 229.419052,184.853668 
	C242.880692,181.615585 255.926270,178.346146 269.256531,175.165497 
	C270.675446,175.119171 271.809723,174.984070 273.340668,174.832016 
	C287.886353,173.591263 301.014862,167.591995 315.365265,166.574783 
	C324.126221,165.953766 332.782776,164.120148 342.362335,164.892029 
	C339.998627,167.935272 338.120087,170.420639 336.170532,172.848923 
	C332.832977,177.005997 333.715363,181.182022 336.075806,185.356216 
	C336.103546,185.405258 336.906311,185.016006 337.347321,184.831360 
M98.802704,196.676865 
	C98.968971,198.942596 99.135239,201.208328 99.538010,204.140091 
	C104.398041,210.276779 108.343597,211.347290 114.874977,208.048523 
	C115.767700,206.791626 117.681496,205.150589 117.377953,204.343704 
	C115.999840,200.680496 114.777252,196.336044 112.012711,193.981308 
	C108.852249,191.289322 104.337219,192.055679 100.638107,194.862793 
	C100.131348,195.248520 99.624588,195.634232 98.802704,196.676865 
M299.253845,190.591492 
	C299.903168,186.269424 300.552490,181.947357 301.201843,177.625305 
	C300.600311,177.546677 299.998810,177.468048 299.397308,177.389435 
	C298.765015,182.779984 298.132721,188.170547 297.500427,193.561111 
	C297.953857,193.612915 298.407288,193.664703 298.860718,193.716507 
	C298.954895,192.940430 299.049042,192.164337 299.253845,190.591492 
M268.953125,197.477051 
	C269.094482,198.820084 269.235840,200.163101 269.377228,201.506134 
	C269.845520,201.430466 270.313812,201.354797 270.782104,201.279144 
	C269.907013,195.647644 269.031921,190.016159 268.156830,184.384674 
	C267.630859,184.472687 267.104858,184.560699 266.578888,184.648727 
	C267.349152,188.649368 268.119446,192.649994 268.953125,197.477051 
z"/>
<path fill="#5A9AD7" opacity="1.000000" stroke="none" 
	d="
M292.321350,216.561035 
	C294.578278,213.594711 296.697144,209.926254 299.872070,208.198654 
	C304.032013,205.935089 308.959015,204.884750 313.678589,203.899261 
	C318.795135,202.830917 324.036591,202.129639 329.254181,201.859802 
	C332.579468,201.687836 335.958160,202.914764 339.316833,202.937561 
	C344.532043,202.972961 349.748566,202.441788 354.968597,202.303909 
	C357.215881,202.244568 359.473328,202.568314 362.102966,202.953094 
	C364.063416,205.441208 365.167297,208.446075 367.314331,209.816193 
	C376.266937,215.529068 385.435730,220.924591 394.705841,226.113831 
	C411.664612,235.606949 428.751282,244.871567 446.318054,254.586029 
	C450.128021,256.810669 453.404572,258.680786 456.681091,260.550873 
	C458.453705,261.605865 460.226288,262.660858 462.306091,263.468506 
	C462.613251,263.221161 462.705109,263.138794 462.567535,263.517761 
	C462.904022,264.054840 463.378082,264.212921 463.825134,264.402893 
	C463.798157,264.434753 463.798553,264.518280 463.798553,264.518280 
	C469.085541,268.191559 474.385956,271.845673 479.656250,275.542816 
	C486.864716,280.599640 494.231323,285.457550 501.159241,290.875122 
	C504.056488,293.140778 506.656372,296.313110 508.230072,299.625061 
	C510.776672,304.984650 507.659515,309.663605 501.807648,309.135895 
	C496.607544,308.666931 491.238525,307.491577 486.454071,305.439178 
	C465.687744,296.530975 445.116913,287.167664 424.457947,278.008270 
	C405.007599,269.384735 385.708801,260.386566 366.023254,252.335876 
	C347.546143,244.779373 330.323517,234.734634 312.195099,226.519806 
	C305.563019,223.514496 299.160370,220.002930 292.321350,216.561035 
z"/>
<path fill="#5F5959" opacity="1.000000" stroke="none" 
	d="
M165.997177,235.866760 
	C171.619476,235.866638 176.742493,235.866638 181.865509,235.866638 
	C181.865570,236.119659 181.865631,236.372665 181.865692,236.625687 
	C168.205002,236.625687 154.544327,236.625687 140.883652,236.625687 
	C140.874191,236.372742 140.864731,236.119812 140.855286,235.866867 
	C149.069489,235.866867 157.283691,235.866867 165.997177,235.866760 
z"/>
<path fill="#11181E" opacity="1.000000" stroke="none" 
	d="
M456.745117,260.155640 
	C453.404572,258.680786 450.128021,256.810669 446.653442,254.657440 
	C451.022095,252.884064 455.283661,255.100967 456.745117,260.155640 
z"/>
<path fill="#566675" opacity="1.000000" stroke="none" 
	d="
M420.903046,158.797333 
	C416.831696,161.378265 412.793945,163.688690 408.392944,165.967255 
	C411.821808,163.316895 415.613922,160.698410 419.755493,157.974579 
	C420.382141,158.088440 420.659393,158.307648 420.903046,158.797333 
z"/>
<path fill="#5B5B5B" opacity="1.000000" stroke="none" 
	d="
M142.029633,220.139160 
	C145.489639,220.401062 148.886230,220.914429 152.282837,221.427795 
	C152.170197,222.124908 152.057571,222.822006 151.944931,223.519119 
	C148.800812,222.935699 145.656677,222.352295 142.126465,221.579330 
	C141.815643,221.056717 141.890945,220.723679 142.029633,220.139160 
z"/>
<path fill="#12181E" opacity="1.000000" stroke="none" 
	d="
M420.946045,100.093216 
	C419.484863,99.172714 418.186371,98.008316 416.723938,96.560158 
	C417.052124,95.691605 417.544220,95.106812 418.728210,93.699753 
	C419.627869,96.023834 420.368317,97.936577 420.946045,100.093216 
z"/>
<path fill="#12181E" opacity="1.000000" stroke="none" 
	d="
M414.823975,94.202606 
	C413.110168,93.610825 411.526550,92.728821 409.742371,91.572922 
	C412.571503,89.631989 414.490570,90.265068 414.823975,94.202606 
z"/>
<path fill="#5B5B5B" opacity="1.000000" stroke="none" 
	d="
M19.030506,207.877960 
	C18.495268,208.561340 17.621872,208.985992 16.697544,209.777008 
	C15.502682,209.436569 14.358748,208.729752 13.043491,207.806015 
	C14.812228,207.599121 16.752287,207.609177 19.030506,207.877960 
z"/>
<path fill="#5B5B5B" opacity="1.000000" stroke="none" 
	d="
M107.226974,217.043427 
	C108.815025,216.759354 110.644920,216.737045 112.735413,216.944763 
	C111.153610,217.218246 109.311218,217.261703 107.226974,217.043427 
z"/>
<path fill="#5B5B5B" opacity="1.000000" stroke="none" 
	d="
M47.228931,213.995026 
	C48.801697,213.757690 50.621449,213.778671 52.718353,214.009033 
	C51.155647,214.230057 49.315781,214.241684 47.228931,213.995026 
z"/>
<path fill="#5B5B5B" opacity="1.000000" stroke="none" 
	d="
M69.146111,215.926758 
	C69.869804,215.693680 70.760139,215.697632 71.823486,215.921783 
	C71.101921,216.149246 70.207329,216.156509 69.146111,215.926758 
z"/>
<path fill="#5B5B5B" opacity="1.000000" stroke="none" 
	d="
M33.144672,212.944199 
	C33.869858,212.730621 34.759418,212.756638 35.822060,213.003632 
	C35.099773,213.210999 34.204411,213.197388 33.144672,212.944199 
z"/>
<path fill="#5B5B5B" opacity="1.000000" stroke="none" 
	d="
M128.096436,218.020386 
	C128.578018,217.795547 129.170441,217.798126 129.878998,218.009216 
	C129.399185,218.227753 128.803223,218.237778 128.096436,218.020386 
z"/>
<path fill="#5B5B5B" opacity="1.000000" stroke="none" 
	d="
M24.096584,211.961212 
	C24.572294,211.738083 25.162989,211.739517 25.874937,211.947342 
	C25.401316,212.164413 24.806442,212.175110 24.096584,211.961212 
z"/>
<path fill="#11181E" opacity="1.000000" stroke="none" 
	d="
M462.557861,263.194000 
	C463.035583,262.936890 463.568695,262.706970 464.101776,262.477051 
	C464.139557,263.001495 464.177338,263.525970 464.006836,264.284363 
	C463.798553,264.518280 463.798157,264.434753 463.729309,264.117767 
	C463.342010,263.580109 463.023560,263.359436 462.705109,263.138794 
	C462.705109,263.138794 462.613251,263.221161 462.557861,263.194000 
z"/>
<path fill="#14181C" opacity="1.000000" stroke="none" 
	d="
M228.008102,185.059921 
	C218.447540,185.242279 208.886887,185.419067 199.326584,185.614288 
	C198.176132,185.637772 197.027740,185.760986 195.478241,185.599060 
	C195.130646,184.861984 195.183197,184.363815 195.235748,183.865662 
	C196.942490,183.472076 198.649231,183.078461 200.821991,183.034302 
	C201.892029,183.088470 202.496048,182.793213 203.100052,182.497955 
	C204.194901,182.166351 205.289749,181.834763 206.797363,181.876892 
	C207.809479,182.077133 208.408829,181.903641 209.008163,181.730164 
	C210.132889,181.375992 211.257614,181.021820 212.774567,180.995926 
	C213.442383,181.236160 213.717987,181.148132 213.993591,181.060089 
	C217.006058,180.111359 219.984802,179.030258 223.040573,178.251419 
	C226.048080,177.484879 229.117615,176.917053 232.189316,176.458969 
	C235.627853,175.946167 239.199066,174.945419 242.614197,178.088364 
	C243.457428,178.644455 243.881790,178.949371 244.306152,179.254288 
	C244.206970,178.519684 244.107788,177.785065 244.008606,177.050461 
	C245.721161,176.605759 247.433701,176.161057 249.589981,176.000092 
	C250.469162,176.617249 250.904602,176.950668 251.340027,177.284088 
	C251.559341,176.544922 251.778671,175.805771 251.997986,175.066635 
	C252.138306,174.962387 252.278595,174.858139 252.730850,175.043732 
	C255.330750,174.980103 257.618713,174.626633 259.906647,174.273163 
	C267.075958,172.444626 274.306335,170.824097 281.400818,168.740784 
	C293.255798,165.259583 304.996368,161.388107 316.856842,157.926849 
	C318.748230,157.374878 321.013245,158.114792 323.106537,158.240601 
	C327.351532,158.495758 331.615295,158.576172 335.836426,159.043594 
	C338.785675,159.370163 342.882324,159.255081 344.321838,161.053711 
	C346.695251,164.019241 344.677246,167.698471 341.950897,170.247467 
	C337.887421,174.046661 336.071106,178.521088 337.298462,184.445892 
	C336.906311,185.016006 336.103546,185.405258 336.075806,185.356216 
	C333.715363,181.182022 332.832977,177.005997 336.170532,172.848923 
	C338.120087,170.420639 339.998627,167.935272 342.362335,164.892029 
	C332.782776,164.120148 324.126221,165.953766 315.365265,166.574783 
	C301.014862,167.591995 287.886353,173.591263 273.092529,174.625732 
	C271.289093,174.649841 270.130493,174.863281 268.971863,175.076721 
	C255.926270,178.346146 242.880692,181.615585 229.411057,184.556793 
	C228.634033,183.671875 228.281036,183.115158 227.928055,182.558426 
	C227.721344,182.692368 227.514633,182.826294 227.307907,182.960220 
	C227.541306,183.660126 227.774704,184.360016 228.008102,185.059921 
M248.452713,178.243195 
	C248.183136,178.054337 247.913574,177.865479 247.643997,177.676620 
	C247.816910,177.956848 247.989822,178.237076 248.452713,178.243195 
M233.335785,181.441788 
	C233.150253,181.596146 232.964706,181.750504 232.779160,181.904861 
	C232.885529,182.014618 232.991913,182.124359 233.098297,182.234131 
	C233.258331,182.053116 233.418381,181.872116 233.335785,181.441788 
M240.996338,179.388443 
	C240.991943,179.647171 240.968018,179.908600 241.002975,180.161896 
	C241.008606,180.202759 241.276291,180.207474 241.422867,180.228897 
	C241.396286,179.964355 241.369705,179.699814 240.996338,179.388443 
z"/>
<path fill="#182129" opacity="1.000000" stroke="none" 
	d="
M172.002625,185.158676 
	C163.913406,184.989670 155.822067,184.627533 147.735657,184.715607 
	C141.770569,184.780563 135.811874,185.433044 129.256653,185.579239 
	C128.389511,184.845657 128.116043,184.356583 127.842575,183.867493 
	C136.814117,183.004013 145.771561,181.735016 154.762253,181.422699 
	C160.549011,181.221695 166.384613,182.426407 172.564758,183.323700 
	C172.621674,184.150436 172.312149,184.654556 172.002625,185.158676 
z"/>
<path fill="#3A4650" opacity="1.000000" stroke="none" 
	d="
M127.387817,183.903046 
	C128.116043,184.356583 128.389511,184.845657 128.806671,185.577789 
	C121.724213,186.590454 114.612839,189.071808 107.188049,186.919724 
	C105.570061,186.450745 103.655273,187.005768 101.570335,186.977158 
	C105.513748,185.942413 109.725586,184.683792 114.025139,184.191879 
	C118.281723,183.704895 122.626801,183.991394 127.387817,183.903046 
z"/>
<path fill="#3E4145" opacity="1.000000" stroke="none" 
	d="
M194.811676,183.773132 
	C195.183197,184.363815 195.130646,184.861984 195.031387,185.607117 
	C192.254486,186.174469 189.524277,186.494858 186.236618,186.441925 
	C185.102875,185.770126 184.526596,185.471619 183.950317,185.173126 
	C187.429413,184.675613 190.908508,184.178101 194.811676,183.773132 
z"/>
<path fill="#959CA2" opacity="1.000000" stroke="none" 
	d="
M183.532257,185.149384 
	C184.526596,185.471619 185.102875,185.770126 185.833099,186.272568 
	C183.136658,186.258896 180.286255,186.041290 177.385239,185.501770 
	C179.261154,185.161819 181.187668,185.143738 183.532257,185.149384 
z"/>
<path fill="#181B1E" opacity="1.000000" stroke="none" 
	d="
M259.747620,173.957932 
	C257.618713,174.626633 255.330750,174.980103 252.992859,175.053482 
	C255.158157,174.396500 257.373383,174.019608 259.747620,173.957932 
z"/>
<path fill="#959CA2" opacity="1.000000" stroke="none" 
	d="
M171.982712,185.468903 
	C172.312149,184.654556 172.621674,184.150436 172.974365,183.350449 
	C173.960693,183.405609 174.903824,183.756653 175.949615,184.411133 
	C175.333405,185.303574 174.690659,186.094223 173.866852,186.405197 
	C173.380264,186.588852 172.607086,186.013275 171.982712,185.468903 
z"/>
<path fill="#181B1E" opacity="1.000000" stroke="none" 
	d="
M251.722534,175.073364 
	C251.778671,175.805771 251.559341,176.544922 251.340027,177.284088 
	C250.904602,176.950668 250.469162,176.617249 249.974426,175.973709 
	C250.425781,175.469086 250.936432,175.274582 251.722534,175.073364 
z"/>
<path fill="#181B1E" opacity="1.000000" stroke="none" 
	d="
M243.760681,177.040985 
	C244.107788,177.785065 244.206970,178.519684 244.306152,179.254288 
	C243.881790,178.949371 243.457428,178.644455 242.980560,178.064148 
	C242.983475,177.428604 243.178375,177.176193 243.760681,177.040985 
z"/>
<path fill="#181B1E" opacity="1.000000" stroke="none" 
	d="
M202.753036,182.579865 
	C202.496048,182.793213 201.892029,183.088470 201.163437,183.221085 
	C201.494583,182.926208 201.950302,182.793991 202.753036,182.579865 
z"/>
<path fill="#181B1E" opacity="1.000000" stroke="none" 
	d="
M208.674515,181.762939 
	C208.408829,181.903641 207.809479,182.077133 207.107483,182.075745 
	C207.450180,181.865829 207.895523,181.830780 208.674515,181.762939 
z"/>
<path fill="#181B1E" opacity="1.000000" stroke="none" 
	d="
M213.835052,180.994598 
	C213.717987,181.148132 213.442383,181.236160 213.097443,181.208557 
	C213.220627,180.944839 213.436768,180.890228 213.835052,180.994598 
z"/>
<path fill="#100F0F" opacity="1.000000" stroke="none" 
	d="
M99.301506,203.474060 
	C99.135239,201.208328 98.968971,198.942596 99.216949,196.318359 
	C100.067245,195.724792 100.503296,195.489731 100.939354,195.254684 
	C104.337219,192.055679 108.852249,191.289322 112.012711,193.981308 
	C114.777252,196.336044 115.999840,200.680496 117.377953,204.343704 
	C117.681496,205.150589 115.767700,206.791626 114.168304,207.911835 
	C108.741592,206.341461 104.021545,204.907761 99.301506,203.474060 
z"/>
<path fill="#2A2A2A" opacity="1.000000" stroke="none" 
	d="
M99.419754,203.807068 
	C104.021545,204.907761 108.741592,206.341461 113.828232,207.945953 
	C108.343597,211.347290 104.398041,210.276779 99.419754,203.807068 
z"/>
<path fill="#2F2F2F" opacity="1.000000" stroke="none" 
	d="
M299.198517,190.989868 
	C299.049042,192.164337 298.954895,192.940430 298.860718,193.716507 
	C298.407288,193.664703 297.953857,193.612915 297.500427,193.561111 
	C298.132721,188.170547 298.765015,182.779984 299.397308,177.389435 
	C299.998810,177.468048 300.600311,177.546677 301.201843,177.625305 
	C300.552490,181.947357 299.903168,186.269424 299.198517,190.989868 
z"/>
<path fill="#161616" opacity="1.000000" stroke="none" 
	d="
M268.921448,197.063843 
	C268.119446,192.649994 267.349152,188.649368 266.578888,184.648727 
	C267.104858,184.560699 267.630859,184.472687 268.156830,184.384674 
	C269.031921,190.016159 269.907013,195.647644 270.782104,201.279144 
	C270.313812,201.354797 269.845520,201.430466 269.377228,201.506134 
	C269.235840,200.163101 269.094482,198.820084 268.921448,197.063843 
z"/>
<path fill="#181B1E" opacity="1.000000" stroke="none" 
	d="
M269.256531,175.165497 
	C270.130493,174.863281 271.289093,174.649841 272.695862,174.642685 
	C271.809723,174.984070 270.675446,175.119171 269.256531,175.165497 
z"/>
<path fill="#181B1E" opacity="1.000000" stroke="none" 
	d="
M228.276886,185.084503 
	C227.774704,184.360016 227.541306,183.660126 227.307907,182.960220 
	C227.514633,182.826294 227.721344,182.692368 227.928055,182.558426 
	C228.281036,183.115158 228.634033,183.671875 228.995010,184.525467 
	C228.850571,184.917908 228.698120,185.013489 228.276886,185.084503 
z"/>
<path fill="#2A2A2A" opacity="1.000000" stroke="none" 
	d="
M100.788727,195.058746 
	C100.503296,195.489731 100.067245,195.724792 99.374512,195.989899 
	C99.624588,195.634232 100.131348,195.248520 100.788727,195.058746 
z"/>
<path fill="#010101" opacity="1.000000" stroke="none" 
	d="
M462.567535,263.517761 
	C463.023560,263.359436 463.342010,263.580109 463.756287,264.085876 
	C463.378082,264.212921 462.904022,264.054840 462.567535,263.517761 
z"/>
<path fill="#181B1E" opacity="1.000000" stroke="none" 
	d="
M248.307724,178.380249 
	C247.989822,178.237076 247.816910,177.956848 247.643997,177.676620 
	C247.913574,177.865479 248.183136,178.054337 248.307724,178.380249 
z"/>
<path fill="#181B1E" opacity="1.000000" stroke="none" 
	d="
M233.457108,181.566452 
	C233.418381,181.872116 233.258331,182.053116 233.098297,182.234131 
	C232.991913,182.124359 232.885529,182.014618 232.779160,181.904861 
	C232.964706,181.750504 233.150253,181.596146 233.457108,181.566452 
z"/>
<path fill="#181B1E" opacity="1.000000" stroke="none" 
	d="
M241.169739,179.411865 
	C241.369705,179.699814 241.396286,179.964355 241.422852,180.228897 
	C241.276291,180.207474 241.008606,180.202759 241.002975,180.161896 
	C240.968018,179.908600 240.991943,179.647171 241.169739,179.411865 
z"/>
</svg>